<mxfile host="app.diagrams.net" modified="2024-02-05T03:11:29.597Z" agent="Mozilla/5.0 (Windows NT 10.0; Win64; x64) AppleWebKit/537.36 (KHTML, like Gecko) Chrome/121.0.0.0 Safari/537.36 Edg/121.0.0.0" etag="1z9lbaWphjKODCreuZce" version="23.0.2" type="github" pages="4">
  <diagram id="omsBw3Lfm4a6Wu8Xs-Qc" name="memzone">
    <mxGraphModel dx="632" dy="950" grid="1" gridSize="10" guides="1" tooltips="1" connect="1" arrows="1" fold="1" page="1" pageScale="1" pageWidth="827" pageHeight="1169" math="0" shadow="0">
      <root>
        <mxCell id="0" />
        <mxCell id="1" parent="0" />
        <mxCell id="xt5hg7vrcM1Tqit_epQZ-8" style="edgeStyle=orthogonalEdgeStyle;rounded=1;orthogonalLoop=1;jettySize=auto;html=1;exitX=0.25;exitY=1;exitDx=0;exitDy=0;entryX=0;entryY=0.5;entryDx=0;entryDy=0;curved=0;" edge="1" parent="1" source="xt5hg7vrcM1Tqit_epQZ-1" target="xt5hg7vrcM1Tqit_epQZ-2">
          <mxGeometry relative="1" as="geometry" />
        </mxCell>
        <mxCell id="xt5hg7vrcM1Tqit_epQZ-1" value="rte_memzone_reserve" style="rounded=1;whiteSpace=wrap;html=1;" vertex="1" parent="1">
          <mxGeometry x="40" y="40" width="160" height="40" as="geometry" />
        </mxCell>
        <mxCell id="xt5hg7vrcM1Tqit_epQZ-9" style="edgeStyle=orthogonalEdgeStyle;rounded=1;orthogonalLoop=1;jettySize=auto;html=1;exitX=0.25;exitY=1;exitDx=0;exitDy=0;entryX=0;entryY=0.5;entryDx=0;entryDy=0;curved=0;" edge="1" parent="1" source="xt5hg7vrcM1Tqit_epQZ-2" target="xt5hg7vrcM1Tqit_epQZ-3">
          <mxGeometry relative="1" as="geometry" />
        </mxCell>
        <mxCell id="xt5hg7vrcM1Tqit_epQZ-2" value="rte_memzone_reserve_thread_safe" style="rounded=1;whiteSpace=wrap;html=1;" vertex="1" parent="1">
          <mxGeometry x="120" y="100" width="200" height="40" as="geometry" />
        </mxCell>
        <mxCell id="xt5hg7vrcM1Tqit_epQZ-6" style="edgeStyle=orthogonalEdgeStyle;rounded=1;orthogonalLoop=1;jettySize=auto;html=1;exitX=0.25;exitY=1;exitDx=0;exitDy=0;entryX=0;entryY=0.5;entryDx=0;entryDy=0;curved=0;" edge="1" parent="1" source="xt5hg7vrcM1Tqit_epQZ-3" target="xt5hg7vrcM1Tqit_epQZ-4">
          <mxGeometry relative="1" as="geometry" />
        </mxCell>
        <mxCell id="xt5hg7vrcM1Tqit_epQZ-3" value="memzone_reserve_aligned_thread_unsafe" style="rounded=1;whiteSpace=wrap;html=1;" vertex="1" parent="1">
          <mxGeometry x="220" y="160" width="240" height="40" as="geometry" />
        </mxCell>
        <mxCell id="xt5hg7vrcM1Tqit_epQZ-4" value="malloc_heap_alloc_biggest/&lt;br&gt;malloc_heap_alloc" style="rounded=1;whiteSpace=wrap;html=1;" vertex="1" parent="1">
          <mxGeometry x="320" y="220" width="180" height="40" as="geometry" />
        </mxCell>
        <mxCell id="xt5hg7vrcM1Tqit_epQZ-10" value="从malloc_heap中分配需要的内存" style="text;html=1;align=center;verticalAlign=middle;resizable=0;points=[];autosize=1;strokeColor=none;fillColor=none;" vertex="1" parent="1">
          <mxGeometry x="500" y="225" width="200" height="30" as="geometry" />
        </mxCell>
      </root>
    </mxGraphModel>
  </diagram>
  <diagram id="ZaZc1ASJPES8uR-5LDhn" name="mempool">
    <mxGraphModel grid="1" page="1" gridSize="10" guides="1" tooltips="1" connect="1" arrows="1" fold="1" pageScale="1" pageWidth="827" pageHeight="1169" math="0" shadow="0">
      <root>
        <mxCell id="0" />
        <mxCell id="1" parent="0" />
        <mxCell id="j12mQk4M-rqlVj3Kd8F9-2" value="header" style="rounded=0;whiteSpace=wrap;html=1;" vertex="1" parent="1">
          <mxGeometry x="289" y="330" width="40" height="30" as="geometry" />
        </mxCell>
        <mxCell id="j12mQk4M-rqlVj3Kd8F9-3" value="element" style="rounded=0;whiteSpace=wrap;html=1;" vertex="1" parent="1">
          <mxGeometry x="329" y="330" width="80" height="30" as="geometry" />
        </mxCell>
        <mxCell id="j12mQk4M-rqlVj3Kd8F9-4" value="trailer" style="rounded=0;whiteSpace=wrap;html=1;" vertex="1" parent="1">
          <mxGeometry x="409" y="330" width="40" height="30" as="geometry" />
        </mxCell>
        <mxCell id="j12mQk4M-rqlVj3Kd8F9-17" value="rte_mempool" style="rounded=1;whiteSpace=wrap;html=1;" vertex="1" parent="1">
          <mxGeometry y="100" width="80" height="40" as="geometry" />
        </mxCell>
        <mxCell id="oCljHcSUUssmmwrVbaKL-13" style="edgeStyle=orthogonalEdgeStyle;rounded=0;orthogonalLoop=1;jettySize=auto;html=1;exitX=0;exitY=1;exitDx=0;exitDy=0;entryX=0;entryY=0.25;entryDx=0;entryDy=0;" edge="1" parent="1" source="j12mQk4M-rqlVj3Kd8F9-18" target="ckDO4D8yBl8Yn0LTRLac-1">
          <mxGeometry relative="1" as="geometry" />
        </mxCell>
        <mxCell id="oCljHcSUUssmmwrVbaKL-14" style="edgeStyle=orthogonalEdgeStyle;rounded=0;orthogonalLoop=1;jettySize=auto;html=1;exitX=1;exitY=1;exitDx=0;exitDy=0;entryX=1;entryY=0;entryDx=0;entryDy=0;" edge="1" parent="1" source="j12mQk4M-rqlVj3Kd8F9-18" target="ckDO4D8yBl8Yn0LTRLac-2">
          <mxGeometry relative="1" as="geometry" />
        </mxCell>
        <mxCell id="j12mQk4M-rqlVj3Kd8F9-18" value="local_cache[RTE_MAX_LCORE]" style="rounded=1;whiteSpace=wrap;html=1;" vertex="1" parent="1">
          <mxGeometry x="81" y="100" width="179" height="40" as="geometry" />
        </mxCell>
        <mxCell id="oCljHcSUUssmmwrVbaKL-15" style="edgeStyle=orthogonalEdgeStyle;rounded=0;orthogonalLoop=1;jettySize=auto;html=1;exitX=1;exitY=1;exitDx=0;exitDy=0;entryX=0;entryY=0;entryDx=0;entryDy=0;" edge="1" parent="1" source="ckDO4D8yBl8Yn0LTRLac-1" target="j12mQk4M-rqlVj3Kd8F9-2">
          <mxGeometry relative="1" as="geometry" />
        </mxCell>
        <mxCell id="ckDO4D8yBl8Yn0LTRLac-1" value="rte_mempool_cache" style="rounded=1;whiteSpace=wrap;html=1;" vertex="1" parent="1">
          <mxGeometry x="81" y="230" width="120" height="40" as="geometry" />
        </mxCell>
        <mxCell id="oCljHcSUUssmmwrVbaKL-16" style="edgeStyle=orthogonalEdgeStyle;rounded=0;orthogonalLoop=1;jettySize=auto;html=1;exitX=1;exitY=1;exitDx=0;exitDy=0;entryX=1;entryY=0;entryDx=0;entryDy=0;" edge="1" parent="1" source="ckDO4D8yBl8Yn0LTRLac-2" target="j12mQk4M-rqlVj3Kd8F9-4">
          <mxGeometry relative="1" as="geometry" />
        </mxCell>
        <mxCell id="ckDO4D8yBl8Yn0LTRLac-2" value="objs[RTE_MEMPOOL_CACHE_MAX_SIZE * 3]" style="rounded=1;whiteSpace=wrap;html=1;" vertex="1" parent="1">
          <mxGeometry x="201" y="230" width="279" height="40" as="geometry" />
        </mxCell>
        <mxCell id="oCljHcSUUssmmwrVbaKL-17" value="Per-lcore cache" style="text;html=1;align=center;verticalAlign=middle;resizable=0;points=[];autosize=1;strokeColor=none;fillColor=none;" vertex="1" parent="1">
          <mxGeometry x="309" y="270" width="110" height="30" as="geometry" />
        </mxCell>
        <mxCell id="oCljHcSUUssmmwrVbaKL-20" style="edgeStyle=orthogonalEdgeStyle;rounded=0;orthogonalLoop=1;jettySize=auto;html=1;exitX=0;exitY=1;exitDx=0;exitDy=0;entryX=0;entryY=0;entryDx=0;entryDy=0;" edge="1" parent="1" source="oCljHcSUUssmmwrVbaKL-19" target="j12mQk4M-rqlVj3Kd8F9-17">
          <mxGeometry relative="1" as="geometry" />
        </mxCell>
        <mxCell id="oCljHcSUUssmmwrVbaKL-21" style="edgeStyle=orthogonalEdgeStyle;rounded=0;orthogonalLoop=1;jettySize=auto;html=1;exitX=1;exitY=1;exitDx=0;exitDy=0;entryX=1;entryY=0;entryDx=0;entryDy=0;" edge="1" parent="1" source="oCljHcSUUssmmwrVbaKL-19" target="j12mQk4M-rqlVj3Kd8F9-18">
          <mxGeometry relative="1" as="geometry" />
        </mxCell>
        <mxCell id="oCljHcSUUssmmwrVbaKL-19" value="rte_memzone" style="rounded=1;whiteSpace=wrap;html=1;" vertex="1" parent="1">
          <mxGeometry x="1" width="80" height="40" as="geometry" />
        </mxCell>
        <mxCell id="Gyvok06OLw8F6rujM6CW-35" value="" style="rounded=0;whiteSpace=wrap;html=1;strokeWidth=0;" vertex="1" parent="1">
          <mxGeometry x="-20" y="1900" width="930" height="500" as="geometry" />
        </mxCell>
        <mxCell id="Gyvok06OLw8F6rujM6CW-36" style="edgeStyle=orthogonalEdgeStyle;rounded=1;orthogonalLoop=1;jettySize=auto;html=1;exitX=0.25;exitY=1;exitDx=0;exitDy=0;entryX=0;entryY=0.5;entryDx=0;entryDy=0;curved=0;" edge="1" parent="1" source="Gyvok06OLw8F6rujM6CW-38" target="Gyvok06OLw8F6rujM6CW-40">
          <mxGeometry relative="1" as="geometry" />
        </mxCell>
        <mxCell id="Gyvok06OLw8F6rujM6CW-37" style="edgeStyle=orthogonalEdgeStyle;rounded=0;orthogonalLoop=1;jettySize=auto;html=1;exitX=0.25;exitY=1;exitDx=0;exitDy=0;entryX=0;entryY=0.5;entryDx=0;entryDy=0;" edge="1" parent="1" source="Gyvok06OLw8F6rujM6CW-38" target="Gyvok06OLw8F6rujM6CW-47">
          <mxGeometry relative="1" as="geometry" />
        </mxCell>
        <mxCell id="Gyvok06OLw8F6rujM6CW-38" value="rte_mempool_get" style="rounded=1;whiteSpace=wrap;html=1;fillColor=#dae8fc;strokeColor=#6c8ebf;" vertex="1" parent="1">
          <mxGeometry y="1920" width="160" height="40" as="geometry" />
        </mxCell>
        <mxCell id="Gyvok06OLw8F6rujM6CW-39" style="edgeStyle=orthogonalEdgeStyle;rounded=1;orthogonalLoop=1;jettySize=auto;html=1;exitX=0.25;exitY=1;exitDx=0;exitDy=0;entryX=0;entryY=0.5;entryDx=0;entryDy=0;" edge="1" parent="1" source="Gyvok06OLw8F6rujM6CW-40" target="Gyvok06OLw8F6rujM6CW-42">
          <mxGeometry relative="1" as="geometry" />
        </mxCell>
        <mxCell id="Gyvok06OLw8F6rujM6CW-40" value="rte_mempool_get_bulk" style="rounded=1;whiteSpace=wrap;html=1;" vertex="1" parent="1">
          <mxGeometry x="79" y="2040" width="181" height="40" as="geometry" />
        </mxCell>
        <mxCell id="Gyvok06OLw8F6rujM6CW-41" style="edgeStyle=orthogonalEdgeStyle;rounded=1;orthogonalLoop=1;jettySize=auto;html=1;exitX=0.25;exitY=1;exitDx=0;exitDy=0;entryX=0;entryY=0.5;entryDx=0;entryDy=0;" edge="1" parent="1" source="Gyvok06OLw8F6rujM6CW-42" target="Gyvok06OLw8F6rujM6CW-46">
          <mxGeometry relative="1" as="geometry" />
        </mxCell>
        <mxCell id="Gyvok06OLw8F6rujM6CW-42" value="rte_mempool_generic_get" style="rounded=1;whiteSpace=wrap;html=1;" vertex="1" parent="1">
          <mxGeometry x="160" y="2100" width="180" height="40" as="geometry" />
        </mxCell>
        <mxCell id="Gyvok06OLw8F6rujM6CW-43" style="edgeStyle=orthogonalEdgeStyle;rounded=1;orthogonalLoop=1;jettySize=auto;html=1;exitX=0.5;exitY=1;exitDx=0;exitDy=0;entryX=0;entryY=0.5;entryDx=0;entryDy=0;" edge="1" parent="1" source="Gyvok06OLw8F6rujM6CW-67" target="Gyvok06OLw8F6rujM6CW-50">
          <mxGeometry relative="1" as="geometry" />
        </mxCell>
        <mxCell id="Gyvok06OLw8F6rujM6CW-44" style="edgeStyle=orthogonalEdgeStyle;rounded=1;orthogonalLoop=1;jettySize=auto;html=1;exitX=0.25;exitY=1;exitDx=0;exitDy=0;entryX=0;entryY=0.5;entryDx=0;entryDy=0;" edge="1" parent="1" source="Gyvok06OLw8F6rujM6CW-46" target="Gyvok06OLw8F6rujM6CW-67">
          <mxGeometry relative="1" as="geometry" />
        </mxCell>
        <mxCell id="Gyvok06OLw8F6rujM6CW-45" style="edgeStyle=orthogonalEdgeStyle;rounded=1;orthogonalLoop=1;jettySize=auto;html=1;exitX=0.25;exitY=1;exitDx=0;exitDy=0;entryX=0;entryY=0.5;entryDx=0;entryDy=0;curved=0;" edge="1" parent="1" source="Gyvok06OLw8F6rujM6CW-46" target="Gyvok06OLw8F6rujM6CW-68">
          <mxGeometry relative="1" as="geometry" />
        </mxCell>
        <mxCell id="Gyvok06OLw8F6rujM6CW-46" value="rte_mempool_do_generic_get" style="rounded=1;whiteSpace=wrap;html=1;" vertex="1" parent="1">
          <mxGeometry x="240" y="2160" width="180" height="40" as="geometry" />
        </mxCell>
        <mxCell id="Gyvok06OLw8F6rujM6CW-47" value="rte_mempool_default_cache" style="rounded=1;whiteSpace=wrap;html=1;" vertex="1" parent="1">
          <mxGeometry x="80" y="1980" width="180" height="40" as="geometry" />
        </mxCell>
        <mxCell id="Gyvok06OLw8F6rujM6CW-48" style="edgeStyle=orthogonalEdgeStyle;rounded=1;orthogonalLoop=1;jettySize=auto;html=1;exitX=1;exitY=0.5;exitDx=0;exitDy=0;entryX=0;entryY=0.5;entryDx=0;entryDy=0;curved=0;dashed=1;strokeColor=#ff2600;" edge="1" parent="1" source="Gyvok06OLw8F6rujM6CW-67" target="Gyvok06OLw8F6rujM6CW-51">
          <mxGeometry relative="1" as="geometry" />
        </mxCell>
        <mxCell id="Gyvok06OLw8F6rujM6CW-49" value="优先从per-lcore &lt;br&gt;cache中分配" style="edgeLabel;html=1;align=center;verticalAlign=middle;resizable=0;points=[];fontColor=#ff2600;" connectable="0" vertex="1" parent="Gyvok06OLw8F6rujM6CW-48">
          <mxGeometry x="-0.1994" y="1" relative="1" as="geometry">
            <mxPoint x="2" y="-20" as="offset" />
          </mxGeometry>
        </mxCell>
        <mxCell id="Gyvok06OLw8F6rujM6CW-50" value="rte_mempool_ops_dequeue_bulk" style="rounded=1;whiteSpace=wrap;html=1;" vertex="1" parent="1">
          <mxGeometry x="414" y="2280" width="201" height="40" as="geometry" />
        </mxCell>
        <mxCell id="Gyvok06OLw8F6rujM6CW-51" value="Per-lcore cache" style="rounded=1;whiteSpace=wrap;html=1;absoluteArcSize=1;dashed=1;verticalAlign=top;fillColor=#f5f5f5;fontColor=#333333;strokeColor=#666666;" vertex="1" parent="1">
          <mxGeometry x="560" y="1960" width="330" height="180" as="geometry" />
        </mxCell>
        <mxCell id="Gyvok06OLw8F6rujM6CW-52" value="" style="rounded=1;whiteSpace=wrap;html=1;fillColor=#d5e8d4;strokeColor=#82b366;" vertex="1" parent="1">
          <mxGeometry x="589" y="2040" width="30" height="30" as="geometry" />
        </mxCell>
        <mxCell id="Gyvok06OLw8F6rujM6CW-53" value="" style="rounded=1;whiteSpace=wrap;html=1;fillColor=#d5e8d4;strokeColor=#82b366;" vertex="1" parent="1">
          <mxGeometry x="619" y="2040" width="30" height="30" as="geometry" />
        </mxCell>
        <mxCell id="Gyvok06OLw8F6rujM6CW-54" value="" style="rounded=1;whiteSpace=wrap;html=1;fillColor=#d5e8d4;strokeColor=#82b366;" vertex="1" parent="1">
          <mxGeometry x="649" y="2040" width="30" height="30" as="geometry" />
        </mxCell>
        <mxCell id="Gyvok06OLw8F6rujM6CW-55" value="" style="rounded=1;whiteSpace=wrap;html=1;fillColor=#d5e8d4;strokeColor=#82b366;" vertex="1" parent="1">
          <mxGeometry x="679" y="2040" width="30" height="30" as="geometry" />
        </mxCell>
        <mxCell id="Gyvok06OLw8F6rujM6CW-56" value="" style="rounded=1;whiteSpace=wrap;html=1;fillColor=#d5e8d4;strokeColor=#82b366;" vertex="1" parent="1">
          <mxGeometry x="709" y="2040" width="30" height="30" as="geometry" />
        </mxCell>
        <mxCell id="Gyvok06OLw8F6rujM6CW-57" value="" style="rounded=1;whiteSpace=wrap;html=1;fillColor=#fff2cc;strokeColor=#d6b656;" vertex="1" parent="1">
          <mxGeometry x="739" y="2040" width="30" height="30" as="geometry" />
        </mxCell>
        <mxCell id="Gyvok06OLw8F6rujM6CW-58" value="" style="rounded=1;whiteSpace=wrap;html=1;fillColor=#fff2cc;strokeColor=#d6b656;" vertex="1" parent="1">
          <mxGeometry x="769" y="2040" width="30" height="30" as="geometry" />
        </mxCell>
        <mxCell id="Gyvok06OLw8F6rujM6CW-59" value="" style="rounded=1;whiteSpace=wrap;html=1;fillColor=#fff2cc;strokeColor=#d6b656;" vertex="1" parent="1">
          <mxGeometry x="829" y="2040" width="30" height="30" as="geometry" />
        </mxCell>
        <mxCell id="Gyvok06OLw8F6rujM6CW-60" value="..." style="rounded=1;whiteSpace=wrap;html=1;fillColor=#fff2cc;strokeColor=#d6b656;" vertex="1" parent="1">
          <mxGeometry x="799" y="2040" width="30" height="30" as="geometry" />
        </mxCell>
        <mxCell id="Gyvok06OLw8F6rujM6CW-61" style="edgeStyle=orthogonalEdgeStyle;rounded=0;orthogonalLoop=1;jettySize=auto;html=1;entryX=0.5;entryY=0;entryDx=0;entryDy=0;" edge="1" parent="1" source="Gyvok06OLw8F6rujM6CW-62" target="Gyvok06OLw8F6rujM6CW-59">
          <mxGeometry relative="1" as="geometry" />
        </mxCell>
        <mxCell id="Gyvok06OLw8F6rujM6CW-62" value="cache-&amp;gt;len - 1" style="text;html=1;align=center;verticalAlign=middle;resizable=0;points=[];autosize=1;strokeColor=none;fillColor=none;" vertex="1" parent="1">
          <mxGeometry x="793" y="1988" width="100" height="30" as="geometry" />
        </mxCell>
        <mxCell id="Gyvok06OLw8F6rujM6CW-63" value="" style="strokeWidth=1;html=1;shape=mxgraph.flowchart.annotation_2;align=left;labelPosition=right;pointerEvents=1;rotation=-90;" vertex="1" parent="1">
          <mxGeometry x="789" y="2020" width="20" height="120" as="geometry" />
        </mxCell>
        <mxCell id="Gyvok06OLw8F6rujM6CW-64" value="n" style="text;html=1;align=center;verticalAlign=middle;resizable=0;points=[];autosize=1;strokeColor=none;fillColor=none;" vertex="1" parent="1">
          <mxGeometry x="784" y="2083" width="30" height="30" as="geometry" />
        </mxCell>
        <mxCell id="Gyvok06OLw8F6rujM6CW-65" value="" style="strokeWidth=1;html=1;shape=mxgraph.flowchart.annotation_2;align=left;labelPosition=right;pointerEvents=1;rotation=-90;strokeColor=#ff9300;" vertex="1" parent="1">
          <mxGeometry x="714" y="1971" width="20" height="270" as="geometry" />
        </mxCell>
        <mxCell id="Gyvok06OLw8F6rujM6CW-66" value="cache-&amp;gt;len" style="text;html=1;align=center;verticalAlign=middle;resizable=0;points=[];autosize=1;strokeColor=none;fillColor=none;fontColor=#ff9300;" vertex="1" parent="1">
          <mxGeometry x="684" y="2111" width="80" height="30" as="geometry" />
        </mxCell>
        <mxCell id="Gyvok06OLw8F6rujM6CW-67" value="cache-&amp;gt;len &amp;gt; n" style="rhombus;whiteSpace=wrap;html=1;" vertex="1" parent="1">
          <mxGeometry x="319" y="2220" width="110" height="40" as="geometry" />
        </mxCell>
        <mxCell id="Gyvok06OLw8F6rujM6CW-68" value="rte_mempool_ops_dequeue_bulk" style="rounded=1;whiteSpace=wrap;html=1;" vertex="1" parent="1">
          <mxGeometry x="319" y="2340" width="201" height="40" as="geometry" />
        </mxCell>
        <mxCell id="Gyvok06OLw8F6rujM6CW-69" value="" style="rounded=0;whiteSpace=wrap;html=1;strokeWidth=0;" vertex="1" parent="1">
          <mxGeometry x="-20" y="2460" width="950" height="520" as="geometry" />
        </mxCell>
        <mxCell id="Gyvok06OLw8F6rujM6CW-70" style="edgeStyle=orthogonalEdgeStyle;rounded=1;orthogonalLoop=1;jettySize=auto;html=1;exitX=0.25;exitY=1;exitDx=0;exitDy=0;entryX=0;entryY=0.5;entryDx=0;entryDy=0;curved=0;" edge="1" parent="1" source="Gyvok06OLw8F6rujM6CW-72" target="Gyvok06OLw8F6rujM6CW-74">
          <mxGeometry relative="1" as="geometry" />
        </mxCell>
        <mxCell id="Gyvok06OLw8F6rujM6CW-71" style="edgeStyle=orthogonalEdgeStyle;rounded=1;orthogonalLoop=1;jettySize=auto;html=1;exitX=0.25;exitY=1;exitDx=0;exitDy=0;entryX=0;entryY=0.5;entryDx=0;entryDy=0;curved=0;" edge="1" parent="1" source="Gyvok06OLw8F6rujM6CW-72" target="Gyvok06OLw8F6rujM6CW-80">
          <mxGeometry relative="1" as="geometry" />
        </mxCell>
        <mxCell id="Gyvok06OLw8F6rujM6CW-72" value="rte_mempool_put" style="rounded=1;whiteSpace=wrap;html=1;fillColor=#dae8fc;strokeColor=#6c8ebf;" vertex="1" parent="1">
          <mxGeometry x="-1" y="2480" width="160" height="40" as="geometry" />
        </mxCell>
        <mxCell id="Gyvok06OLw8F6rujM6CW-73" style="edgeStyle=orthogonalEdgeStyle;rounded=1;orthogonalLoop=1;jettySize=auto;html=1;exitX=0.25;exitY=1;exitDx=0;exitDy=0;entryX=0;entryY=0.5;entryDx=0;entryDy=0;" edge="1" parent="1" source="Gyvok06OLw8F6rujM6CW-74" target="Gyvok06OLw8F6rujM6CW-76">
          <mxGeometry relative="1" as="geometry" />
        </mxCell>
        <mxCell id="Gyvok06OLw8F6rujM6CW-74" value="rte_mempool_put_bulk" style="rounded=1;whiteSpace=wrap;html=1;" vertex="1" parent="1">
          <mxGeometry x="78" y="2600" width="172" height="40" as="geometry" />
        </mxCell>
        <mxCell id="Gyvok06OLw8F6rujM6CW-75" style="edgeStyle=orthogonalEdgeStyle;rounded=1;orthogonalLoop=1;jettySize=auto;html=1;exitX=0.25;exitY=1;exitDx=0;exitDy=0;entryX=0;entryY=0.5;entryDx=0;entryDy=0;" edge="1" parent="1" source="Gyvok06OLw8F6rujM6CW-76" target="Gyvok06OLw8F6rujM6CW-79">
          <mxGeometry relative="1" as="geometry" />
        </mxCell>
        <mxCell id="Gyvok06OLw8F6rujM6CW-76" value="rte_mempool_generic_put" style="rounded=1;whiteSpace=wrap;html=1;" vertex="1" parent="1">
          <mxGeometry x="159" y="2660" width="171" height="40" as="geometry" />
        </mxCell>
        <mxCell id="Gyvok06OLw8F6rujM6CW-77" style="edgeStyle=orthogonalEdgeStyle;rounded=1;orthogonalLoop=1;jettySize=auto;html=1;exitX=0.25;exitY=1;exitDx=0;exitDy=0;entryX=0;entryY=0.5;entryDx=0;entryDy=0;curved=0;" edge="1" parent="1" source="Gyvok06OLw8F6rujM6CW-79" target="Gyvok06OLw8F6rujM6CW-83">
          <mxGeometry relative="1" as="geometry" />
        </mxCell>
        <mxCell id="Gyvok06OLw8F6rujM6CW-78" style="edgeStyle=orthogonalEdgeStyle;rounded=1;orthogonalLoop=1;jettySize=auto;html=1;exitX=0.25;exitY=1;exitDx=0;exitDy=0;entryX=0;entryY=0.5;entryDx=0;entryDy=0;strokeColor=default;curved=0;" edge="1" parent="1" source="Gyvok06OLw8F6rujM6CW-79" target="Gyvok06OLw8F6rujM6CW-85">
          <mxGeometry relative="1" as="geometry" />
        </mxCell>
        <mxCell id="Gyvok06OLw8F6rujM6CW-79" value="rte_mempool_do_generic_put" style="rounded=1;whiteSpace=wrap;html=1;" vertex="1" parent="1">
          <mxGeometry x="239" y="2720" width="171" height="40" as="geometry" />
        </mxCell>
        <mxCell id="Gyvok06OLw8F6rujM6CW-80" value="rte_mempool_default_cache" style="rounded=1;whiteSpace=wrap;html=1;" vertex="1" parent="1">
          <mxGeometry x="79" y="2540" width="180" height="40" as="geometry" />
        </mxCell>
        <mxCell id="Gyvok06OLw8F6rujM6CW-81" value="rte_mempool_ops_enqueue_bulk" style="rounded=1;whiteSpace=wrap;html=1;" vertex="1" parent="1">
          <mxGeometry x="435" y="2920" width="180" height="40" as="geometry" />
        </mxCell>
        <mxCell id="Gyvok06OLw8F6rujM6CW-82" style="edgeStyle=orthogonalEdgeStyle;rounded=1;orthogonalLoop=1;jettySize=auto;html=1;exitX=0.5;exitY=1;exitDx=0;exitDy=0;entryX=0;entryY=0.5;entryDx=0;entryDy=0;curved=0;" edge="1" parent="1" source="Gyvok06OLw8F6rujM6CW-83" target="Gyvok06OLw8F6rujM6CW-81">
          <mxGeometry relative="1" as="geometry" />
        </mxCell>
        <mxCell id="Gyvok06OLw8F6rujM6CW-83" value="cache-&amp;gt;len &amp;gt;= &lt;br&gt;cache-&amp;gt;flushthresh" style="rhombus;whiteSpace=wrap;html=1;" vertex="1" parent="1">
          <mxGeometry x="320" y="2840" width="160" height="50" as="geometry" />
        </mxCell>
        <mxCell id="Gyvok06OLw8F6rujM6CW-84" style="edgeStyle=orthogonalEdgeStyle;rounded=1;orthogonalLoop=1;jettySize=auto;html=1;exitX=1;exitY=0.5;exitDx=0;exitDy=0;entryX=0;entryY=0.5;entryDx=0;entryDy=0;curved=0;dashed=1;strokeColor=#ff2600;" edge="1" parent="1" source="Gyvok06OLw8F6rujM6CW-85" target="Gyvok06OLw8F6rujM6CW-86">
          <mxGeometry relative="1" as="geometry" />
        </mxCell>
        <mxCell id="Gyvok06OLw8F6rujM6CW-85" value="&lt;font color=&quot;#ff2600&quot;&gt;将待释放的项放回到Per-lcore cache中&lt;/font&gt;" style="rounded=1;whiteSpace=wrap;html=1;" vertex="1" parent="1">
          <mxGeometry x="319" y="2780" width="211" height="40" as="geometry" />
        </mxCell>
        <mxCell id="Gyvok06OLw8F6rujM6CW-86" value="Per-lcore cache" style="rounded=1;whiteSpace=wrap;html=1;absoluteArcSize=1;dashed=1;verticalAlign=top;fillColor=#f5f5f5;fontColor=#333333;strokeColor=#666666;" vertex="1" parent="1">
          <mxGeometry x="580" y="2480" width="330" height="180" as="geometry" />
        </mxCell>
        <mxCell id="Gyvok06OLw8F6rujM6CW-87" value="" style="rounded=1;whiteSpace=wrap;html=1;fillColor=#d5e8d4;strokeColor=#82b366;" vertex="1" parent="1">
          <mxGeometry x="609" y="2560" width="30" height="30" as="geometry" />
        </mxCell>
        <mxCell id="Gyvok06OLw8F6rujM6CW-88" value="" style="rounded=1;whiteSpace=wrap;html=1;fillColor=#d5e8d4;strokeColor=#82b366;" vertex="1" parent="1">
          <mxGeometry x="639" y="2560" width="30" height="30" as="geometry" />
        </mxCell>
        <mxCell id="Gyvok06OLw8F6rujM6CW-89" value="" style="rounded=1;whiteSpace=wrap;html=1;fillColor=#d5e8d4;strokeColor=#82b366;" vertex="1" parent="1">
          <mxGeometry x="669" y="2560" width="30" height="30" as="geometry" />
        </mxCell>
        <mxCell id="Gyvok06OLw8F6rujM6CW-90" value="" style="rounded=1;whiteSpace=wrap;html=1;fillColor=#d5e8d4;strokeColor=#82b366;" vertex="1" parent="1">
          <mxGeometry x="699" y="2560" width="30" height="30" as="geometry" />
        </mxCell>
        <mxCell id="Gyvok06OLw8F6rujM6CW-91" value="" style="rounded=1;whiteSpace=wrap;html=1;fillColor=#d5e8d4;strokeColor=#82b366;" vertex="1" parent="1">
          <mxGeometry x="729" y="2560" width="30" height="30" as="geometry" />
        </mxCell>
        <mxCell id="Gyvok06OLw8F6rujM6CW-92" value="" style="rounded=1;whiteSpace=wrap;html=1;fillColor=#fff2cc;strokeColor=#d6b656;" vertex="1" parent="1">
          <mxGeometry x="759" y="2560" width="30" height="30" as="geometry" />
        </mxCell>
        <mxCell id="Gyvok06OLw8F6rujM6CW-93" value="" style="rounded=1;whiteSpace=wrap;html=1;fillColor=#fff2cc;strokeColor=#d6b656;" vertex="1" parent="1">
          <mxGeometry x="789" y="2560" width="30" height="30" as="geometry" />
        </mxCell>
        <mxCell id="Gyvok06OLw8F6rujM6CW-94" value="" style="rounded=1;whiteSpace=wrap;html=1;fillColor=#fff2cc;strokeColor=#d6b656;" vertex="1" parent="1">
          <mxGeometry x="849" y="2560" width="30" height="30" as="geometry" />
        </mxCell>
        <mxCell id="Gyvok06OLw8F6rujM6CW-95" value="..." style="rounded=1;whiteSpace=wrap;html=1;fillColor=#fff2cc;strokeColor=#d6b656;" vertex="1" parent="1">
          <mxGeometry x="819" y="2560" width="30" height="30" as="geometry" />
        </mxCell>
        <mxCell id="Gyvok06OLw8F6rujM6CW-96" style="edgeStyle=orthogonalEdgeStyle;rounded=0;orthogonalLoop=1;jettySize=auto;html=1;" edge="1" parent="1" source="Gyvok06OLw8F6rujM6CW-97" target="Gyvok06OLw8F6rujM6CW-91">
          <mxGeometry relative="1" as="geometry" />
        </mxCell>
        <mxCell id="Gyvok06OLw8F6rujM6CW-97" value="cache-&amp;gt;len - 1" style="text;html=1;align=center;verticalAlign=middle;resizable=0;points=[];autosize=1;strokeColor=none;fillColor=none;" vertex="1" parent="1">
          <mxGeometry x="694" y="2510" width="100" height="30" as="geometry" />
        </mxCell>
        <mxCell id="Gyvok06OLw8F6rujM6CW-98" value="" style="strokeWidth=1;html=1;shape=mxgraph.flowchart.annotation_2;align=left;labelPosition=right;pointerEvents=1;rotation=-90;" vertex="1" parent="1">
          <mxGeometry x="809" y="2540" width="20" height="120" as="geometry" />
        </mxCell>
        <mxCell id="Gyvok06OLw8F6rujM6CW-99" value="n" style="text;html=1;align=center;verticalAlign=middle;resizable=0;points=[];autosize=1;strokeColor=none;fillColor=none;" vertex="1" parent="1">
          <mxGeometry x="804" y="2603" width="30" height="30" as="geometry" />
        </mxCell>
        <mxCell id="Gyvok06OLw8F6rujM6CW-100" value="" style="strokeWidth=1;html=1;shape=mxgraph.flowchart.annotation_2;align=left;labelPosition=right;pointerEvents=1;rotation=-90;fontColor=#FF9300;strokeColor=#ff9300;" vertex="1" parent="1">
          <mxGeometry x="673.5" y="2551.5" width="20" height="149" as="geometry" />
        </mxCell>
        <mxCell id="Gyvok06OLw8F6rujM6CW-101" value="cache-&amp;gt;len" style="text;html=1;align=center;verticalAlign=middle;resizable=0;points=[];autosize=1;strokeColor=none;fillColor=none;fontColor=#ff9300;" vertex="1" parent="1">
          <mxGeometry x="643.5" y="2630" width="80" height="30" as="geometry" />
        </mxCell>
        <mxCell id="Gyvok06OLw8F6rujM6CW-102" value="" style="rounded=0;whiteSpace=wrap;html=1;strokeWidth=0;" vertex="1" parent="1">
          <mxGeometry x="-60" y="1140" width="970" height="620" as="geometry" />
        </mxCell>
        <mxCell id="Gyvok06OLw8F6rujM6CW-103" style="edgeStyle=orthogonalEdgeStyle;rounded=1;orthogonalLoop=1;jettySize=auto;html=1;exitX=0.25;exitY=1;exitDx=0;exitDy=0;entryX=0;entryY=0.5;entryDx=0;entryDy=0;curved=0;" edge="1" parent="1" source="Gyvok06OLw8F6rujM6CW-106" target="Gyvok06OLw8F6rujM6CW-110">
          <mxGeometry relative="1" as="geometry" />
        </mxCell>
        <mxCell id="Gyvok06OLw8F6rujM6CW-104" style="edgeStyle=orthogonalEdgeStyle;rounded=1;orthogonalLoop=1;jettySize=auto;html=1;exitX=0.25;exitY=1;exitDx=0;exitDy=0;entryX=0;entryY=0.5;entryDx=0;entryDy=0;curved=0;" edge="1" parent="1" source="Gyvok06OLw8F6rujM6CW-106" target="Gyvok06OLw8F6rujM6CW-112">
          <mxGeometry relative="1" as="geometry" />
        </mxCell>
        <mxCell id="Gyvok06OLw8F6rujM6CW-105" style="edgeStyle=orthogonalEdgeStyle;rounded=1;orthogonalLoop=1;jettySize=auto;html=1;exitX=0.25;exitY=1;exitDx=0;exitDy=0;entryX=0;entryY=0.5;entryDx=0;entryDy=0;curved=0;" edge="1" parent="1" source="Gyvok06OLw8F6rujM6CW-106" target="Gyvok06OLw8F6rujM6CW-113">
          <mxGeometry relative="1" as="geometry" />
        </mxCell>
        <mxCell id="Gyvok06OLw8F6rujM6CW-106" value="rte_mempool_create" style="rounded=1;whiteSpace=wrap;html=1;fillColor=#dae8fc;strokeColor=#6c8ebf;" vertex="1" parent="1">
          <mxGeometry x="-40" y="1160" width="160" height="40" as="geometry" />
        </mxCell>
        <mxCell id="Gyvok06OLw8F6rujM6CW-107" style="edgeStyle=orthogonalEdgeStyle;rounded=1;orthogonalLoop=1;jettySize=auto;html=1;exitX=0.25;exitY=1;exitDx=0;exitDy=0;entryX=0;entryY=0.5;entryDx=0;entryDy=0;curved=0;" edge="1" parent="1" source="Gyvok06OLw8F6rujM6CW-110" target="Gyvok06OLw8F6rujM6CW-114">
          <mxGeometry relative="1" as="geometry" />
        </mxCell>
        <mxCell id="Gyvok06OLw8F6rujM6CW-108" style="edgeStyle=orthogonalEdgeStyle;rounded=1;orthogonalLoop=1;jettySize=auto;html=1;exitX=0.25;exitY=1;exitDx=0;exitDy=0;entryX=0;entryY=0.5;entryDx=0;entryDy=0;curved=0;" edge="1" parent="1" source="Gyvok06OLw8F6rujM6CW-110" target="Gyvok06OLw8F6rujM6CW-115">
          <mxGeometry relative="1" as="geometry" />
        </mxCell>
        <mxCell id="Gyvok06OLw8F6rujM6CW-109" style="edgeStyle=orthogonalEdgeStyle;rounded=1;orthogonalLoop=1;jettySize=auto;html=1;exitX=0.25;exitY=1;exitDx=0;exitDy=0;entryX=0;entryY=0.5;entryDx=0;entryDy=0;curved=0;" edge="1" parent="1" source="Gyvok06OLw8F6rujM6CW-110" target="Gyvok06OLw8F6rujM6CW-117">
          <mxGeometry relative="1" as="geometry" />
        </mxCell>
        <mxCell id="Gyvok06OLw8F6rujM6CW-110" value="rte_mempool_create_empty" style="rounded=1;whiteSpace=wrap;html=1;" vertex="1" parent="1">
          <mxGeometry x="41" y="1220" width="180" height="40" as="geometry" />
        </mxCell>
        <mxCell id="Gyvok06OLw8F6rujM6CW-111" style="edgeStyle=orthogonalEdgeStyle;rounded=1;orthogonalLoop=1;jettySize=auto;html=1;exitX=0.25;exitY=1;exitDx=0;exitDy=0;entryX=0;entryY=0.5;entryDx=0;entryDy=0;curved=0;" edge="1" parent="1" source="Gyvok06OLw8F6rujM6CW-112" target="Gyvok06OLw8F6rujM6CW-120">
          <mxGeometry relative="1" as="geometry" />
        </mxCell>
        <mxCell id="Gyvok06OLw8F6rujM6CW-112" value="rte_mempool_populate_default" style="rounded=1;whiteSpace=wrap;html=1;" vertex="1" parent="1">
          <mxGeometry x="40" y="1460" width="180" height="40" as="geometry" />
        </mxCell>
        <mxCell id="Gyvok06OLw8F6rujM6CW-113" value="rte_mempool_obj_iter" style="rounded=1;whiteSpace=wrap;html=1;" vertex="1" parent="1">
          <mxGeometry x="40" y="1700" width="160" height="40" as="geometry" />
        </mxCell>
        <mxCell id="Gyvok06OLw8F6rujM6CW-114" value="rte_mempool_calc_obj_size" style="rounded=1;whiteSpace=wrap;html=1;" vertex="1" parent="1">
          <mxGeometry x="120" y="1280" width="180" height="40" as="geometry" />
        </mxCell>
        <mxCell id="Gyvok06OLw8F6rujM6CW-115" value="rte_memzone_reserve" style="rounded=1;whiteSpace=wrap;html=1;" vertex="1" parent="1">
          <mxGeometry x="120" y="1400" width="180" height="40" as="geometry" />
        </mxCell>
        <mxCell id="Gyvok06OLw8F6rujM6CW-116" value="调用用户传入的回调初始化每一项object" style="text;html=1;strokeColor=none;fillColor=none;align=center;verticalAlign=middle;whiteSpace=wrap;rounded=0;" vertex="1" parent="1">
          <mxGeometry x="209" y="1710" width="220" height="30" as="geometry" />
        </mxCell>
        <mxCell id="Gyvok06OLw8F6rujM6CW-117" value="计算mempool的大小" style="rounded=1;whiteSpace=wrap;html=1;" vertex="1" parent="1">
          <mxGeometry x="120" y="1340" width="180" height="40" as="geometry" />
        </mxCell>
        <mxCell id="Gyvok06OLw8F6rujM6CW-118" style="edgeStyle=orthogonalEdgeStyle;rounded=1;orthogonalLoop=1;jettySize=auto;html=1;exitX=0.25;exitY=1;exitDx=0;exitDy=0;entryX=0;entryY=0.5;entryDx=0;entryDy=0;curved=0;" edge="1" parent="1" source="Gyvok06OLw8F6rujM6CW-120" target="Gyvok06OLw8F6rujM6CW-121">
          <mxGeometry relative="1" as="geometry" />
        </mxCell>
        <mxCell id="Gyvok06OLw8F6rujM6CW-119" style="edgeStyle=orthogonalEdgeStyle;rounded=1;orthogonalLoop=1;jettySize=auto;html=1;exitX=0.25;exitY=1;exitDx=0;exitDy=0;entryX=0;entryY=0.5;entryDx=0;entryDy=0;curved=0;" edge="1" parent="1" source="Gyvok06OLw8F6rujM6CW-120" target="Gyvok06OLw8F6rujM6CW-127">
          <mxGeometry relative="1" as="geometry" />
        </mxCell>
        <mxCell id="Gyvok06OLw8F6rujM6CW-120" value="rte_mempool_populate_iova" style="rounded=1;whiteSpace=wrap;html=1;" vertex="1" parent="1">
          <mxGeometry x="120" y="1520" width="180" height="40" as="geometry" />
        </mxCell>
        <mxCell id="Gyvok06OLw8F6rujM6CW-121" value="rte_mempool_ops_populate" style="rounded=1;whiteSpace=wrap;html=1;" vertex="1" parent="1">
          <mxGeometry x="199" y="1580" width="180" height="40" as="geometry" />
        </mxCell>
        <mxCell id="Gyvok06OLw8F6rujM6CW-122" style="edgeStyle=orthogonalEdgeStyle;rounded=1;orthogonalLoop=1;jettySize=auto;html=1;exitX=1;exitY=0.5;exitDx=0;exitDy=0;entryX=0;entryY=0.5;entryDx=0;entryDy=0;curved=0;dashed=1;strokeColor=#ff2600;" edge="1" parent="1" source="Gyvok06OLw8F6rujM6CW-123" target="Gyvok06OLw8F6rujM6CW-125">
          <mxGeometry relative="1" as="geometry" />
        </mxCell>
        <mxCell id="Gyvok06OLw8F6rujM6CW-123" value="调用mempool_add_elem&lt;br&gt;添加object" style="text;html=1;strokeColor=none;fillColor=none;align=center;verticalAlign=middle;whiteSpace=wrap;rounded=0;" vertex="1" parent="1">
          <mxGeometry x="379" y="1585" width="161" height="30" as="geometry" />
        </mxCell>
        <mxCell id="Gyvok06OLw8F6rujM6CW-124" style="edgeStyle=orthogonalEdgeStyle;rounded=1;orthogonalLoop=1;jettySize=auto;html=1;exitX=0.25;exitY=1;exitDx=0;exitDy=0;entryX=0;entryY=0.5;entryDx=0;entryDy=0;curved=0;" edge="1" parent="1" source="Gyvok06OLw8F6rujM6CW-125" target="Gyvok06OLw8F6rujM6CW-126">
          <mxGeometry relative="1" as="geometry" />
        </mxCell>
        <mxCell id="Gyvok06OLw8F6rujM6CW-125" value="mempool_add_elem" style="rounded=1;whiteSpace=wrap;html=1;" vertex="1" parent="1">
          <mxGeometry x="600" y="1440" width="160" height="40" as="geometry" />
        </mxCell>
        <mxCell id="Gyvok06OLw8F6rujM6CW-126" value="STAILQ_INSERT_TAIL(&amp;amp;mp-&amp;gt;elt_list)" style="rounded=1;whiteSpace=wrap;html=1;" vertex="1" parent="1">
          <mxGeometry x="680" y="1500" width="210" height="40" as="geometry" />
        </mxCell>
        <mxCell id="Gyvok06OLw8F6rujM6CW-127" value="STAILQ_INSERT_TAIL(&amp;amp;mp-&amp;gt;memlist)" style="rounded=1;whiteSpace=wrap;html=1;" vertex="1" parent="1">
          <mxGeometry x="199" y="1640" width="221" height="40" as="geometry" />
        </mxCell>
        <mxCell id="Gyvok06OLw8F6rujM6CW-130" value="" style="rounded=0;whiteSpace=wrap;html=1;strokeWidth=0;" vertex="1" parent="1">
          <mxGeometry x="-60" y="420" width="970" height="590" as="geometry" />
        </mxCell>
        <mxCell id="Gyvok06OLw8F6rujM6CW-131" value="rte_mempool" style="rounded=1;whiteSpace=wrap;html=1;verticalAlign=top;absoluteArcSize=1;" vertex="1" parent="1">
          <mxGeometry x="-40" y="600" width="260" height="170" as="geometry" />
        </mxCell>
        <mxCell id="Gyvok06OLw8F6rujM6CW-132" style="edgeStyle=orthogonalEdgeStyle;rounded=1;orthogonalLoop=1;jettySize=auto;html=1;exitX=1;exitY=0.5;exitDx=0;exitDy=0;entryX=0;entryY=0.5;entryDx=0;entryDy=0;curved=0;" edge="1" parent="1" source="Gyvok06OLw8F6rujM6CW-133" target="Gyvok06OLw8F6rujM6CW-139">
          <mxGeometry relative="1" as="geometry" />
        </mxCell>
        <mxCell id="Gyvok06OLw8F6rujM6CW-133" value="struct rte_mempool_cache *local_cache;" style="rounded=0;whiteSpace=wrap;html=1;" vertex="1" parent="1">
          <mxGeometry x="-30" y="670" width="240" height="30" as="geometry" />
        </mxCell>
        <mxCell id="Gyvok06OLw8F6rujM6CW-134" style="edgeStyle=orthogonalEdgeStyle;rounded=0;orthogonalLoop=1;jettySize=auto;html=1;exitX=1;exitY=0.5;exitDx=0;exitDy=0;entryX=0;entryY=0.5;entryDx=0;entryDy=0;" edge="1" parent="1" source="Gyvok06OLw8F6rujM6CW-135" target="Gyvok06OLw8F6rujM6CW-145">
          <mxGeometry relative="1" as="geometry" />
        </mxCell>
        <mxCell id="Gyvok06OLw8F6rujM6CW-135" value="struct rte_mempool_objhdr_list elt_list;" style="rounded=0;whiteSpace=wrap;html=1;" vertex="1" parent="1">
          <mxGeometry x="-30" y="700" width="240" height="30" as="geometry" />
        </mxCell>
        <mxCell id="Gyvok06OLw8F6rujM6CW-136" style="edgeStyle=orthogonalEdgeStyle;rounded=1;orthogonalLoop=1;jettySize=auto;html=1;exitX=1;exitY=0.5;exitDx=0;exitDy=0;entryX=0;entryY=0.5;entryDx=0;entryDy=0;curved=0;" edge="1" parent="1" source="Gyvok06OLw8F6rujM6CW-137" target="Gyvok06OLw8F6rujM6CW-158">
          <mxGeometry relative="1" as="geometry" />
        </mxCell>
        <mxCell id="Gyvok06OLw8F6rujM6CW-137" value="struct rte_mempool_memhdr_list mem_list;" style="rounded=0;whiteSpace=wrap;html=1;" vertex="1" parent="1">
          <mxGeometry x="-30" y="730" width="240" height="30" as="geometry" />
        </mxCell>
        <mxCell id="Gyvok06OLw8F6rujM6CW-138" value="struct rte_memzone *mz;" style="rounded=0;whiteSpace=wrap;html=1;" vertex="1" parent="1">
          <mxGeometry x="-30" y="640" width="240" height="30" as="geometry" />
        </mxCell>
        <mxCell id="Gyvok06OLw8F6rujM6CW-139" value="rte_mempool_cache" style="rounded=1;whiteSpace=wrap;html=1;verticalAlign=top;absoluteArcSize=1;" vertex="1" parent="1">
          <mxGeometry x="320" y="440" width="170" height="170" as="geometry" />
        </mxCell>
        <mxCell id="Gyvok06OLw8F6rujM6CW-140" value="uint32_t flushthresh;" style="rounded=0;whiteSpace=wrap;html=1;" vertex="1" parent="1">
          <mxGeometry x="330" y="510" width="150" height="30" as="geometry" />
        </mxCell>
        <mxCell id="Gyvok06OLw8F6rujM6CW-141" value="uint32_t len;" style="rounded=0;whiteSpace=wrap;html=1;" vertex="1" parent="1">
          <mxGeometry x="330" y="540" width="150" height="30" as="geometry" />
        </mxCell>
        <mxCell id="Gyvok06OLw8F6rujM6CW-142" style="edgeStyle=orthogonalEdgeStyle;rounded=1;orthogonalLoop=1;jettySize=auto;html=1;exitX=0;exitY=0.5;exitDx=0;exitDy=0;entryX=0;entryY=0.5;entryDx=0;entryDy=0;curved=0;" edge="1" parent="1" source="Gyvok06OLw8F6rujM6CW-143" target="Gyvok06OLw8F6rujM6CW-145">
          <mxGeometry relative="1" as="geometry" />
        </mxCell>
        <mxCell id="Gyvok06OLw8F6rujM6CW-143" value="void *objs[];" style="rounded=0;whiteSpace=wrap;html=1;" vertex="1" parent="1">
          <mxGeometry x="330" y="570" width="150" height="30" as="geometry" />
        </mxCell>
        <mxCell id="Gyvok06OLw8F6rujM6CW-144" value="uint32_t size;" style="rounded=0;whiteSpace=wrap;html=1;" vertex="1" parent="1">
          <mxGeometry x="330" y="480" width="150" height="30" as="geometry" />
        </mxCell>
        <mxCell id="Gyvok06OLw8F6rujM6CW-145" value="" style="rounded=1;whiteSpace=wrap;html=1;" vertex="1" parent="1">
          <mxGeometry x="370" y="690" width="180" height="50" as="geometry" />
        </mxCell>
        <mxCell id="Gyvok06OLw8F6rujM6CW-146" style="edgeStyle=orthogonalEdgeStyle;rounded=1;orthogonalLoop=1;jettySize=auto;html=1;exitX=0.5;exitY=0;exitDx=0;exitDy=0;entryX=0;entryY=0.5;entryDx=0;entryDy=0;curved=0;" edge="1" parent="1" source="Gyvok06OLw8F6rujM6CW-147" target="Gyvok06OLw8F6rujM6CW-151">
          <mxGeometry relative="1" as="geometry" />
        </mxCell>
        <mxCell id="Gyvok06OLw8F6rujM6CW-147" value="header" style="rounded=0;whiteSpace=wrap;html=1;" vertex="1" parent="1">
          <mxGeometry x="380" y="700" width="40" height="30" as="geometry" />
        </mxCell>
        <mxCell id="Gyvok06OLw8F6rujM6CW-148" value="element" style="rounded=0;whiteSpace=wrap;html=1;" vertex="1" parent="1">
          <mxGeometry x="420" y="700" width="80" height="30" as="geometry" />
        </mxCell>
        <mxCell id="Gyvok06OLw8F6rujM6CW-149" style="edgeStyle=orthogonalEdgeStyle;rounded=1;orthogonalLoop=1;jettySize=auto;html=1;exitX=0.5;exitY=1;exitDx=0;exitDy=0;entryX=0;entryY=0.5;entryDx=0;entryDy=0;curved=0;" edge="1" parent="1" source="Gyvok06OLw8F6rujM6CW-150" target="Gyvok06OLw8F6rujM6CW-156">
          <mxGeometry relative="1" as="geometry" />
        </mxCell>
        <mxCell id="Gyvok06OLw8F6rujM6CW-150" value="trailer" style="rounded=0;whiteSpace=wrap;html=1;" vertex="1" parent="1">
          <mxGeometry x="500" y="700" width="40" height="30" as="geometry" />
        </mxCell>
        <mxCell id="Gyvok06OLw8F6rujM6CW-151" value="rte_mempool_objhdr" style="rounded=1;whiteSpace=wrap;html=1;verticalAlign=top;absoluteArcSize=1;" vertex="1" parent="1">
          <mxGeometry x="720" y="560" width="170" height="170" as="geometry" />
        </mxCell>
        <mxCell id="Gyvok06OLw8F6rujM6CW-152" value="struct rte_mempool *mp;" style="rounded=0;whiteSpace=wrap;html=1;" vertex="1" parent="1">
          <mxGeometry x="730" y="630" width="150" height="30" as="geometry" />
        </mxCell>
        <mxCell id="Gyvok06OLw8F6rujM6CW-153" value="rte_iova_t iova" style="rounded=0;whiteSpace=wrap;html=1;" vertex="1" parent="1">
          <mxGeometry x="730" y="660" width="150" height="30" as="geometry" />
        </mxCell>
        <mxCell id="Gyvok06OLw8F6rujM6CW-154" value="uint64_t cookie;" style="rounded=0;whiteSpace=wrap;html=1;" vertex="1" parent="1">
          <mxGeometry x="730" y="690" width="150" height="30" as="geometry" />
        </mxCell>
        <mxCell id="Gyvok06OLw8F6rujM6CW-155" value="rte_mempool_objhdr next;" style="rounded=0;whiteSpace=wrap;html=1;" vertex="1" parent="1">
          <mxGeometry x="730" y="600" width="150" height="30" as="geometry" />
        </mxCell>
        <mxCell id="Gyvok06OLw8F6rujM6CW-156" value="rte_mempool_objhdr" style="rounded=1;whiteSpace=wrap;html=1;verticalAlign=top;absoluteArcSize=1;" vertex="1" parent="1">
          <mxGeometry x="720" y="760" width="170" height="80" as="geometry" />
        </mxCell>
        <mxCell id="Gyvok06OLw8F6rujM6CW-157" value="uint64_t cookie;" style="rounded=0;whiteSpace=wrap;html=1;" vertex="1" parent="1">
          <mxGeometry x="730" y="800" width="150" height="30" as="geometry" />
        </mxCell>
        <mxCell id="Gyvok06OLw8F6rujM6CW-158" value="rte_mempool_memhdr" style="rounded=1;whiteSpace=wrap;html=1;verticalAlign=top;absoluteArcSize=1;" vertex="1" parent="1">
          <mxGeometry x="320" y="820" width="181" height="170" as="geometry" />
        </mxCell>
        <mxCell id="Gyvok06OLw8F6rujM6CW-159" value="struct rte_mempool *mp;" style="rounded=0;whiteSpace=wrap;html=1;" vertex="1" parent="1">
          <mxGeometry x="330" y="890" width="161" height="30" as="geometry" />
        </mxCell>
        <mxCell id="Gyvok06OLw8F6rujM6CW-160" value="rte_iova_t iova" style="rounded=0;whiteSpace=wrap;html=1;" vertex="1" parent="1">
          <mxGeometry x="330" y="950" width="161" height="30" as="geometry" />
        </mxCell>
        <mxCell id="Gyvok06OLw8F6rujM6CW-161" value="void *addr" style="rounded=0;whiteSpace=wrap;html=1;" vertex="1" parent="1">
          <mxGeometry x="330" y="920" width="161" height="30" as="geometry" />
        </mxCell>
        <mxCell id="Gyvok06OLw8F6rujM6CW-162" value="rte_mempool_memhdr next;" style="rounded=0;whiteSpace=wrap;html=1;" vertex="1" parent="1">
          <mxGeometry x="330" y="860" width="161" height="30" as="geometry" />
        </mxCell>
      </root>
    </mxGraphModel>
  </diagram>
  <diagram name="vhost" id="hyrU26rBqg8DrORT4Mcz">
    <mxGraphModel dx="2052" dy="1153" grid="1" gridSize="10" guides="1" tooltips="1" connect="1" arrows="1" fold="1" page="1" pageScale="1" pageWidth="827" pageHeight="1169" math="0" shadow="0">
      <root>
        <mxCell id="0" />
        <mxCell id="1" parent="0" />
        <mxCell id="RU3uc__ESTjbFmCe7IqD-1" value="rte_vhost_driver_register" style="rounded=1;whiteSpace=wrap;html=1;" vertex="1" parent="1">
          <mxGeometry x="40" y="40" width="160" height="40" as="geometry" />
        </mxCell>
      </root>
    </mxGraphModel>
  </diagram>
  <diagram id="4mWpOJM5e9ni40Nz3Hyz" name="pktmbuf">
    <mxGraphModel dx="770" dy="1143" grid="1" gridSize="10" guides="1" tooltips="1" connect="1" arrows="1" fold="1" page="1" pageScale="1" pageWidth="827" pageHeight="1169" math="0" shadow="0">
      <root>
        <mxCell id="0" />
        <mxCell id="1" parent="0" />
        <mxCell id="SftezfbpLL81MChwu9YT-3" style="edgeStyle=orthogonalEdgeStyle;rounded=1;orthogonalLoop=1;jettySize=auto;html=1;exitX=0.25;exitY=1;exitDx=0;exitDy=0;entryX=0;entryY=0.5;entryDx=0;entryDy=0;curved=0;" edge="1" parent="1" source="SftezfbpLL81MChwu9YT-1" target="SftezfbpLL81MChwu9YT-2">
          <mxGeometry relative="1" as="geometry" />
        </mxCell>
        <mxCell id="SftezfbpLL81MChwu9YT-1" value="rte_pktmbuf_pool_create" style="rounded=1;whiteSpace=wrap;html=1;" vertex="1" parent="1">
          <mxGeometry x="40" y="40" width="200" height="40" as="geometry" />
        </mxCell>
        <mxCell id="SftezfbpLL81MChwu9YT-9" style="edgeStyle=orthogonalEdgeStyle;rounded=1;orthogonalLoop=1;jettySize=auto;html=1;exitX=0.25;exitY=1;exitDx=0;exitDy=0;entryX=0;entryY=0.5;entryDx=0;entryDy=0;curved=0;" edge="1" parent="1" source="SftezfbpLL81MChwu9YT-2" target="SftezfbpLL81MChwu9YT-4">
          <mxGeometry relative="1" as="geometry" />
        </mxCell>
        <mxCell id="SftezfbpLL81MChwu9YT-10" style="edgeStyle=orthogonalEdgeStyle;rounded=1;orthogonalLoop=1;jettySize=auto;html=1;exitX=0.25;exitY=1;exitDx=0;exitDy=0;entryX=0;entryY=0.5;entryDx=0;entryDy=0;curved=0;" edge="1" parent="1" source="SftezfbpLL81MChwu9YT-2" target="SftezfbpLL81MChwu9YT-5">
          <mxGeometry relative="1" as="geometry" />
        </mxCell>
        <mxCell id="SftezfbpLL81MChwu9YT-11" style="edgeStyle=orthogonalEdgeStyle;rounded=1;orthogonalLoop=1;jettySize=auto;html=1;exitX=0.25;exitY=1;exitDx=0;exitDy=0;entryX=0;entryY=0.5;entryDx=0;entryDy=0;curved=0;" edge="1" parent="1" source="SftezfbpLL81MChwu9YT-2" target="SftezfbpLL81MChwu9YT-6">
          <mxGeometry relative="1" as="geometry" />
        </mxCell>
        <mxCell id="SftezfbpLL81MChwu9YT-12" style="edgeStyle=orthogonalEdgeStyle;rounded=1;orthogonalLoop=1;jettySize=auto;html=1;exitX=0.25;exitY=1;exitDx=0;exitDy=0;entryX=0;entryY=0.5;entryDx=0;entryDy=0;curved=0;" edge="1" parent="1" source="SftezfbpLL81MChwu9YT-2" target="SftezfbpLL81MChwu9YT-7">
          <mxGeometry relative="1" as="geometry" />
        </mxCell>
        <mxCell id="SftezfbpLL81MChwu9YT-41" style="edgeStyle=orthogonalEdgeStyle;rounded=1;orthogonalLoop=1;jettySize=auto;html=1;exitX=0.25;exitY=1;exitDx=0;exitDy=0;entryX=0;entryY=0.5;entryDx=0;entryDy=0;curved=0;" edge="1" parent="1" source="SftezfbpLL81MChwu9YT-2" target="SftezfbpLL81MChwu9YT-40">
          <mxGeometry relative="1" as="geometry" />
        </mxCell>
        <mxCell id="SftezfbpLL81MChwu9YT-2" value="rte_pktmbuf_pool_create_by_ops" style="rounded=1;whiteSpace=wrap;html=1;" vertex="1" parent="1">
          <mxGeometry x="130" y="100" width="200" height="40" as="geometry" />
        </mxCell>
        <mxCell id="SftezfbpLL81MChwu9YT-4" value="rte_mempool_create_empty" style="rounded=1;whiteSpace=wrap;html=1;" vertex="1" parent="1">
          <mxGeometry x="214" y="220" width="200" height="40" as="geometry" />
        </mxCell>
        <mxCell id="SftezfbpLL81MChwu9YT-5" value="rte_pktmbuf_pool_init" style="rounded=1;whiteSpace=wrap;html=1;" vertex="1" parent="1">
          <mxGeometry x="214" y="280" width="200" height="40" as="geometry" />
        </mxCell>
        <mxCell id="SftezfbpLL81MChwu9YT-6" value="rte_mempool_populate_default" style="rounded=1;whiteSpace=wrap;html=1;" vertex="1" parent="1">
          <mxGeometry x="214" y="340" width="200" height="40" as="geometry" />
        </mxCell>
        <mxCell id="SftezfbpLL81MChwu9YT-7" value="rte_mempool_obj_iter" style="rounded=1;whiteSpace=wrap;html=1;" vertex="1" parent="1">
          <mxGeometry x="214" y="400" width="200" height="40" as="geometry" />
        </mxCell>
        <mxCell id="SftezfbpLL81MChwu9YT-13" value="调用rte_pktmbuf_init对&lt;br&gt;rte_mbuf对象进行初始化" style="text;html=1;align=left;verticalAlign=middle;resizable=0;points=[];autosize=1;strokeColor=none;fillColor=none;" vertex="1" parent="1">
          <mxGeometry x="424" y="400" width="150" height="40" as="geometry" />
        </mxCell>
        <mxCell id="SftezfbpLL81MChwu9YT-14" value="rte_mbuf" style="rounded=1;whiteSpace=wrap;html=1;" vertex="1" parent="1">
          <mxGeometry x="520" y="280" width="80" height="40" as="geometry" />
        </mxCell>
        <mxCell id="SftezfbpLL81MChwu9YT-15" value="" style="rounded=1;whiteSpace=wrap;html=1;" vertex="1" parent="1">
          <mxGeometry x="600" y="280" width="40" height="40" as="geometry" />
        </mxCell>
        <mxCell id="SftezfbpLL81MChwu9YT-16" value="data_room" style="rounded=1;whiteSpace=wrap;html=1;" vertex="1" parent="1">
          <mxGeometry x="640" y="280" width="160" height="40" as="geometry" />
        </mxCell>
        <mxCell id="SftezfbpLL81MChwu9YT-19" style="edgeStyle=orthogonalEdgeStyle;rounded=0;orthogonalLoop=1;jettySize=auto;html=1;entryX=0.5;entryY=0;entryDx=0;entryDy=0;" edge="1" parent="1" source="SftezfbpLL81MChwu9YT-18" target="SftezfbpLL81MChwu9YT-15">
          <mxGeometry relative="1" as="geometry" />
        </mxCell>
        <mxCell id="SftezfbpLL81MChwu9YT-18" value="rte_pktmbuf_pool_private" style="text;html=1;align=center;verticalAlign=middle;resizable=0;points=[];autosize=1;strokeColor=none;fillColor=none;" vertex="1" parent="1">
          <mxGeometry x="540" y="230" width="160" height="30" as="geometry" />
        </mxCell>
        <mxCell id="SftezfbpLL81MChwu9YT-26" style="edgeStyle=orthogonalEdgeStyle;rounded=1;orthogonalLoop=1;jettySize=auto;html=1;exitX=0.25;exitY=1;exitDx=0;exitDy=0;entryX=0;entryY=0.5;entryDx=0;entryDy=0;curved=0;" edge="1" parent="1" source="SftezfbpLL81MChwu9YT-20" target="SftezfbpLL81MChwu9YT-21">
          <mxGeometry relative="1" as="geometry" />
        </mxCell>
        <mxCell id="SftezfbpLL81MChwu9YT-27" style="edgeStyle=orthogonalEdgeStyle;rounded=1;orthogonalLoop=1;jettySize=auto;html=1;exitX=0.25;exitY=1;exitDx=0;exitDy=0;entryX=0;entryY=0.5;entryDx=0;entryDy=0;curved=0;" edge="1" parent="1" source="SftezfbpLL81MChwu9YT-20" target="SftezfbpLL81MChwu9YT-22">
          <mxGeometry relative="1" as="geometry" />
        </mxCell>
        <mxCell id="SftezfbpLL81MChwu9YT-28" style="edgeStyle=orthogonalEdgeStyle;rounded=1;orthogonalLoop=1;jettySize=auto;html=1;exitX=0.25;exitY=1;exitDx=0;exitDy=0;entryX=0;entryY=0.5;entryDx=0;entryDy=0;curved=0;" edge="1" parent="1" source="SftezfbpLL81MChwu9YT-20" target="SftezfbpLL81MChwu9YT-23">
          <mxGeometry relative="1" as="geometry" />
        </mxCell>
        <mxCell id="SftezfbpLL81MChwu9YT-29" style="edgeStyle=orthogonalEdgeStyle;rounded=1;orthogonalLoop=1;jettySize=auto;html=1;exitX=0.25;exitY=1;exitDx=0;exitDy=0;entryX=0;entryY=0.5;entryDx=0;entryDy=0;curved=0;" edge="1" parent="1" source="SftezfbpLL81MChwu9YT-20" target="SftezfbpLL81MChwu9YT-24">
          <mxGeometry relative="1" as="geometry" />
        </mxCell>
        <mxCell id="SftezfbpLL81MChwu9YT-39" style="edgeStyle=orthogonalEdgeStyle;rounded=1;orthogonalLoop=1;jettySize=auto;html=1;exitX=0.25;exitY=1;exitDx=0;exitDy=0;entryX=0;entryY=0.5;entryDx=0;entryDy=0;curved=0;" edge="1" parent="1" source="SftezfbpLL81MChwu9YT-20" target="SftezfbpLL81MChwu9YT-38">
          <mxGeometry relative="1" as="geometry" />
        </mxCell>
        <mxCell id="SftezfbpLL81MChwu9YT-20" value="rte_pktmbuf_pool_create_extbuf" style="rounded=1;whiteSpace=wrap;html=1;" vertex="1" parent="1">
          <mxGeometry x="40" y="760" width="200" height="40" as="geometry" />
        </mxCell>
        <mxCell id="SftezfbpLL81MChwu9YT-21" value="rte_mempool_create_empty" style="rounded=1;whiteSpace=wrap;html=1;" vertex="1" parent="1">
          <mxGeometry x="130" y="880" width="200" height="40" as="geometry" />
        </mxCell>
        <mxCell id="SftezfbpLL81MChwu9YT-22" value="rte_pktmbuf_pool_init" style="rounded=1;whiteSpace=wrap;html=1;" vertex="1" parent="1">
          <mxGeometry x="130" y="940" width="200" height="40" as="geometry" />
        </mxCell>
        <mxCell id="SftezfbpLL81MChwu9YT-23" value="rte_mempool_populate_default" style="rounded=1;whiteSpace=wrap;html=1;" vertex="1" parent="1">
          <mxGeometry x="130" y="1000" width="200" height="40" as="geometry" />
        </mxCell>
        <mxCell id="SftezfbpLL81MChwu9YT-24" value="rte_mempool_obj_iter" style="rounded=1;whiteSpace=wrap;html=1;" vertex="1" parent="1">
          <mxGeometry x="130" y="1060" width="200" height="40" as="geometry" />
        </mxCell>
        <mxCell id="SftezfbpLL81MChwu9YT-25" value="调用__rte_pktmbuf_init_extmem对&lt;br&gt;rte_mbuf对象进行初始化" style="text;html=1;align=left;verticalAlign=middle;resizable=0;points=[];autosize=1;strokeColor=none;fillColor=none;" vertex="1" parent="1">
          <mxGeometry x="340" y="1060" width="210" height="40" as="geometry" />
        </mxCell>
        <mxCell id="SftezfbpLL81MChwu9YT-30" value="rte_mbuf" style="rounded=1;whiteSpace=wrap;html=1;" vertex="1" parent="1">
          <mxGeometry x="520" y="840" width="80" height="40" as="geometry" />
        </mxCell>
        <mxCell id="SftezfbpLL81MChwu9YT-31" value="" style="rounded=1;whiteSpace=wrap;html=1;" vertex="1" parent="1">
          <mxGeometry x="600" y="840" width="40" height="40" as="geometry" />
        </mxCell>
        <mxCell id="SftezfbpLL81MChwu9YT-32" value="" style="rounded=1;whiteSpace=wrap;html=1;" vertex="1" parent="1">
          <mxGeometry x="640" y="840" width="40" height="40" as="geometry" />
        </mxCell>
        <mxCell id="SftezfbpLL81MChwu9YT-33" style="edgeStyle=orthogonalEdgeStyle;rounded=0;orthogonalLoop=1;jettySize=auto;html=1;entryX=0.5;entryY=0;entryDx=0;entryDy=0;" edge="1" parent="1" source="SftezfbpLL81MChwu9YT-34" target="SftezfbpLL81MChwu9YT-31">
          <mxGeometry relative="1" as="geometry" />
        </mxCell>
        <mxCell id="SftezfbpLL81MChwu9YT-34" value="rte_pktmbuf_pool_private" style="text;html=1;align=center;verticalAlign=middle;resizable=0;points=[];autosize=1;strokeColor=none;fillColor=none;" vertex="1" parent="1">
          <mxGeometry x="540" y="788" width="160" height="30" as="geometry" />
        </mxCell>
        <mxCell id="SftezfbpLL81MChwu9YT-37" style="edgeStyle=orthogonalEdgeStyle;rounded=0;orthogonalLoop=1;jettySize=auto;html=1;entryX=0.5;entryY=1;entryDx=0;entryDy=0;" edge="1" parent="1" source="SftezfbpLL81MChwu9YT-35" target="SftezfbpLL81MChwu9YT-32">
          <mxGeometry relative="1" as="geometry" />
        </mxCell>
        <mxCell id="SftezfbpLL81MChwu9YT-35" value="rte_mbuf_ext_shared_info" style="text;html=1;align=center;verticalAlign=middle;resizable=0;points=[];autosize=1;strokeColor=none;fillColor=none;" vertex="1" parent="1">
          <mxGeometry x="580" y="900" width="160" height="30" as="geometry" />
        </mxCell>
        <mxCell id="SftezfbpLL81MChwu9YT-38" value="计算element的大小" style="rounded=1;whiteSpace=wrap;html=1;" vertex="1" parent="1">
          <mxGeometry x="130" y="818" width="200" height="40" as="geometry" />
        </mxCell>
        <mxCell id="SftezfbpLL81MChwu9YT-40" value="计算element的大小" style="rounded=1;whiteSpace=wrap;html=1;" vertex="1" parent="1">
          <mxGeometry x="214" y="160" width="200" height="40" as="geometry" />
        </mxCell>
      </root>
    </mxGraphModel>
  </diagram>
</mxfile>
